# xmcd
#
# Track frame offsets:
#	150
#	17056
#	36898
#	59068
#	72652
#	92243
#	113960
#	126818
#	142950
#	160239
#	177591
#	199914
#	220449
#	241797
#	261523
#	284045
#	302276
#
# Disc length: 4575 seconds
#
# Revision: 1
# Processed by: cddbd v1.5.2PL0 Copyright (c) Steve Scherf et al.
# Submitted via: audiograbber 1.83.01
#
DISCID=0e11dd11
DTITLE=Eric Church - Caught in the Act: Live
DYEAR=2017
DGENRE=Country
TTITLE0=Before She Does
TTITLE1=How 'Bout You
TTITLE2=Drink in My Hand
TTITLE3=Over When It's Over
TTITLE4=I'm Gettin' Stoned
TTITLE5=Creepin'
TTITLE6=Keep On
TTITLE7=Hungover and Hard Up
TTITLE8=Sinners Like Me
TTITLE9=Country Music Jesus
TTITLE10=Pledge Allegiance to the Hag
TTITLE11=Jack Daniels
TTITLE12=Homeboy
TTITLE13=Lotta Boot Left to Fill
TTITLE14=Smoke a Little Smoke
TTITLE15=These Boots
TTITLE16=Springsteen
EXTD=
EXTT0=
EXTT1=
EXTT2=
EXTT3=
EXTT4=
EXTT5=
EXTT6=
EXTT7=
EXTT8=
EXTT9=
EXTT10=
EXTT11=
EXTT12=
EXTT13=
EXTT14=
EXTT15=
EXTT16=
PLAYORDER=
